<mxfile host="app.diagrams.net" agent="Mozilla/5.0 (Windows NT 10.0; Win64; x64) AppleWebKit/537.36 (KHTML, like Gecko) Chrome/131.0.0.0 Safari/537.36" version="24.9.2">
  <diagram name="Page-1" id="kxVPLBATwL-lTFPLtfOb">
    <mxGraphModel dx="993" dy="558" grid="1" gridSize="10" guides="1" tooltips="1" connect="1" arrows="1" fold="1" page="1" pageScale="1" pageWidth="827" pageHeight="1169" math="0" shadow="0">
      <root>
        <mxCell id="0" />
        <mxCell id="1" parent="0" />
        <mxCell id="Q16-iBj3WvuILZVPS6H7-122" value="" style="verticalLabelPosition=bottom;verticalAlign=top;html=1;shape=mxgraph.basic.rect;fillColor2=none;strokeWidth=1;size=20;indent=5;fillColor=#d5e8d4;strokeColor=#82b366;" parent="1" vertex="1">
          <mxGeometry x="280" width="280" height="1061" as="geometry" />
        </mxCell>
        <mxCell id="Q16-iBj3WvuILZVPS6H7-121" value="" style="verticalLabelPosition=bottom;verticalAlign=top;html=1;shape=mxgraph.basic.rect;fillColor2=none;strokeWidth=1;size=20;indent=5;fillColor=#dae8fc;strokeColor=#6c8ebf;" parent="1" vertex="1">
          <mxGeometry x="560" width="267" height="1061" as="geometry" />
        </mxCell>
        <mxCell id="Q16-iBj3WvuILZVPS6H7-120" value="" style="verticalLabelPosition=bottom;verticalAlign=top;html=1;shape=mxgraph.basic.rect;fillColor2=none;strokeWidth=1;size=20;indent=5;fillColor=#fff2cc;strokeColor=#d6b656;" parent="1" vertex="1">
          <mxGeometry width="280" height="1061" as="geometry" />
        </mxCell>
        <mxCell id="Q16-iBj3WvuILZVPS6H7-2" value="" style="ellipse;whiteSpace=wrap;html=1;aspect=fixed;" parent="1" vertex="1">
          <mxGeometry x="405" y="117" width="30" height="30" as="geometry" />
        </mxCell>
        <mxCell id="Q16-iBj3WvuILZVPS6H7-3" value="" style="endArrow=classic;html=1;rounded=0;strokeWidth=1;flowAnimation=0;entryX=0.5;entryY=0;entryDx=0;entryDy=0;exitX=0.5;exitY=1;exitDx=0;exitDy=0;" parent="1" source="Q16-iBj3WvuILZVPS6H7-2" target="Q16-iBj3WvuILZVPS6H7-4" edge="1">
          <mxGeometry width="50" height="50" relative="1" as="geometry">
            <mxPoint x="419.88000000000005" y="147" as="sourcePoint" />
            <mxPoint x="419.92" y="167" as="targetPoint" />
          </mxGeometry>
        </mxCell>
        <mxCell id="Q16-iBj3WvuILZVPS6H7-4" value="select movie" style="rounded=1;whiteSpace=wrap;html=1;" parent="1" vertex="1">
          <mxGeometry x="370" y="167" width="100" height="40" as="geometry" />
        </mxCell>
        <mxCell id="Q16-iBj3WvuILZVPS6H7-5" value="" style="endArrow=classic;html=1;rounded=0;entryX=0.5;entryY=0;entryDx=0;entryDy=0;exitX=0.5;exitY=1;exitDx=0;exitDy=0;" parent="1" source="Q16-iBj3WvuILZVPS6H7-4" target="Q16-iBj3WvuILZVPS6H7-6" edge="1">
          <mxGeometry width="50" height="50" relative="1" as="geometry">
            <mxPoint x="419.71000000000004" y="207" as="sourcePoint" />
            <mxPoint x="420" y="227" as="targetPoint" />
          </mxGeometry>
        </mxCell>
        <mxCell id="Q16-iBj3WvuILZVPS6H7-6" value="add to cart" style="rounded=1;whiteSpace=wrap;html=1;" parent="1" vertex="1">
          <mxGeometry x="370" y="227" width="100" height="40" as="geometry" />
        </mxCell>
        <mxCell id="Q16-iBj3WvuILZVPS6H7-8" value="cheek out" style="rounded=1;whiteSpace=wrap;html=1;" parent="1" vertex="1">
          <mxGeometry x="370" y="287" width="100" height="40" as="geometry" />
        </mxCell>
        <mxCell id="Q16-iBj3WvuILZVPS6H7-19" value="" style="endArrow=classic;html=1;rounded=0;entryX=0.5;entryY=0.051;entryDx=0;entryDy=0;entryPerimeter=0;exitX=0.5;exitY=1;exitDx=0;exitDy=0;" parent="1" source="Q16-iBj3WvuILZVPS6H7-6" target="Q16-iBj3WvuILZVPS6H7-8" edge="1">
          <mxGeometry width="50" height="50" relative="1" as="geometry">
            <mxPoint x="419.81000000000006" y="267" as="sourcePoint" />
            <mxPoint x="420.1" y="287" as="targetPoint" />
          </mxGeometry>
        </mxCell>
        <mxCell id="Q16-iBj3WvuILZVPS6H7-20" value="" style="endArrow=classic;html=1;rounded=0;entryX=0.5;entryY=0;entryDx=0;entryDy=0;exitX=0.5;exitY=1;exitDx=0;exitDy=0;" parent="1" source="Q16-iBj3WvuILZVPS6H7-8" edge="1">
          <mxGeometry width="50" height="50" relative="1" as="geometry">
            <mxPoint x="420" y="327" as="sourcePoint" />
            <mxPoint x="420" y="347" as="targetPoint" />
          </mxGeometry>
        </mxCell>
        <mxCell id="Q16-iBj3WvuILZVPS6H7-90" value="" style="edgeStyle=orthogonalEdgeStyle;rounded=0;orthogonalLoop=1;jettySize=auto;html=1;" parent="1" source="Q16-iBj3WvuILZVPS6H7-45" target="Q16-iBj3WvuILZVPS6H7-51" edge="1">
          <mxGeometry relative="1" as="geometry" />
        </mxCell>
        <mxCell id="Q16-iBj3WvuILZVPS6H7-45" value="process order confirmation" style="rounded=1;whiteSpace=wrap;html=1;shadow=0;glass=0;" parent="1" vertex="1">
          <mxGeometry x="370" y="347" width="100" height="40" as="geometry" />
        </mxCell>
        <mxCell id="Q16-iBj3WvuILZVPS6H7-46" value="" style="endArrow=classic;html=1;rounded=0;exitX=0.5;exitY=1;exitDx=0;exitDy=0;" parent="1" source="Q16-iBj3WvuILZVPS6H7-45" edge="1">
          <mxGeometry width="50" height="50" relative="1" as="geometry">
            <mxPoint x="419.78000000000003" y="387" as="sourcePoint" />
            <mxPoint x="420.07" y="407" as="targetPoint" />
          </mxGeometry>
        </mxCell>
        <mxCell id="Q16-iBj3WvuILZVPS6H7-47" value="" style="endArrow=none;html=1;rounded=0;" parent="1" edge="1">
          <mxGeometry width="50" height="50" relative="1" as="geometry">
            <mxPoint x="380" y="407" as="sourcePoint" />
            <mxPoint x="480" y="407" as="targetPoint" />
          </mxGeometry>
        </mxCell>
        <mxCell id="Q16-iBj3WvuILZVPS6H7-49" value="" style="endArrow=classic;html=1;rounded=0;entryX=0.5;entryY=0;entryDx=0;entryDy=0;" parent="1" target="Q16-iBj3WvuILZVPS6H7-50" edge="1">
          <mxGeometry width="50" height="50" relative="1" as="geometry">
            <mxPoint x="478" y="407" as="sourcePoint" />
            <mxPoint x="460.06999999999994" y="427" as="targetPoint" />
          </mxGeometry>
        </mxCell>
        <mxCell id="Q16-iBj3WvuILZVPS6H7-50" value="submit ticket details" style="rounded=1;whiteSpace=wrap;html=1;" parent="1" vertex="1">
          <mxGeometry x="425" y="427" width="105" height="40" as="geometry" />
        </mxCell>
        <mxCell id="Q16-iBj3WvuILZVPS6H7-70" value="" style="edgeStyle=orthogonalEdgeStyle;rounded=0;orthogonalLoop=1;jettySize=auto;html=1;exitX=0;exitY=0.5;exitDx=0;exitDy=0;entryX=1;entryY=0.5;entryDx=0;entryDy=0;" parent="1" source="Q16-iBj3WvuILZVPS6H7-51" target="Q16-iBj3WvuILZVPS6H7-69" edge="1">
          <mxGeometry relative="1" as="geometry">
            <mxPoint x="289" y="447" as="sourcePoint" />
          </mxGeometry>
        </mxCell>
        <mxCell id="Q16-iBj3WvuILZVPS6H7-51" value="notify inventory send tiket and details" style="rounded=1;whiteSpace=wrap;html=1;" parent="1" vertex="1">
          <mxGeometry x="310" y="427" width="105" height="40" as="geometry" />
        </mxCell>
        <mxCell id="Q16-iBj3WvuILZVPS6H7-69" value="update sets details" style="rounded=1;whiteSpace=wrap;html=1;" parent="1" vertex="1">
          <mxGeometry x="86" y="427" width="106" height="40" as="geometry" />
        </mxCell>
        <mxCell id="Q16-iBj3WvuILZVPS6H7-82" value="" style="endArrow=classic;html=1;rounded=0;exitX=0.5;exitY=1;exitDx=0;exitDy=0;" parent="1" source="Q16-iBj3WvuILZVPS6H7-69" edge="1">
          <mxGeometry width="50" height="50" relative="1" as="geometry">
            <mxPoint x="140.39000000000004" y="467" as="sourcePoint" />
            <mxPoint x="139" y="487" as="targetPoint" />
          </mxGeometry>
        </mxCell>
        <mxCell id="Q16-iBj3WvuILZVPS6H7-83" value="" style="endArrow=none;html=1;rounded=0;" parent="1" edge="1">
          <mxGeometry width="50" height="50" relative="1" as="geometry">
            <mxPoint x="80" y="487" as="sourcePoint" />
            <mxPoint x="196" y="487" as="targetPoint" />
          </mxGeometry>
        </mxCell>
        <mxCell id="Q16-iBj3WvuILZVPS6H7-84" value="" style="endArrow=classic;html=1;rounded=0;entryX=0.5;entryY=0;entryDx=0;entryDy=0;" parent="1" target="Q16-iBj3WvuILZVPS6H7-86" edge="1">
          <mxGeometry width="50" height="50" relative="1" as="geometry">
            <mxPoint x="79" y="487" as="sourcePoint" />
            <mxPoint x="99.89999999999998" y="507" as="targetPoint" />
          </mxGeometry>
        </mxCell>
        <mxCell id="Q16-iBj3WvuILZVPS6H7-85" value="" style="endArrow=classic;html=1;rounded=0;entryX=0.5;entryY=0;entryDx=0;entryDy=0;" parent="1" target="Q16-iBj3WvuILZVPS6H7-89" edge="1">
          <mxGeometry width="50" height="50" relative="1" as="geometry">
            <mxPoint x="196" y="487" as="sourcePoint" />
            <mxPoint x="196.81" y="507" as="targetPoint" />
          </mxGeometry>
        </mxCell>
        <mxCell id="Q16-iBj3WvuILZVPS6H7-86" value="send mobile msg" style="rounded=1;whiteSpace=wrap;html=1;" parent="1" vertex="1">
          <mxGeometry x="26" y="507" width="106" height="40" as="geometry" />
        </mxCell>
        <mxCell id="Q16-iBj3WvuILZVPS6H7-87" value="" style="endArrow=classic;html=1;rounded=0;entryX=0.5;entryY=0;entryDx=0;entryDy=0;exitX=0.5;exitY=1;exitDx=0;exitDy=0;" parent="1" source="Q16-iBj3WvuILZVPS6H7-86" target="Q16-iBj3WvuILZVPS6H7-88" edge="1">
          <mxGeometry width="50" height="50" relative="1" as="geometry">
            <mxPoint x="96.81000000000006" y="547" as="sourcePoint" />
            <mxPoint x="97.10000000000002" y="567" as="targetPoint" />
          </mxGeometry>
        </mxCell>
        <mxCell id="Q16-iBj3WvuILZVPS6H7-88" value="" style="ellipse;whiteSpace=wrap;html=1;aspect=fixed;fillColor=#000000;" parent="1" vertex="1">
          <mxGeometry x="64" y="572" width="30" height="30" as="geometry" />
        </mxCell>
        <mxCell id="Q16-iBj3WvuILZVPS6H7-89" value="confirm app" style="rounded=1;whiteSpace=wrap;html=1;" parent="1" vertex="1">
          <mxGeometry x="147" y="507" width="99" height="40" as="geometry" />
        </mxCell>
        <mxCell id="Q16-iBj3WvuILZVPS6H7-94" value="customer service confirmation" style="rounded=1;whiteSpace=wrap;html=1;" parent="1" vertex="1">
          <mxGeometry x="425" y="507" width="95" height="40" as="geometry" />
        </mxCell>
        <mxCell id="Q16-iBj3WvuILZVPS6H7-95" value="inventory confirmation" style="rounded=1;whiteSpace=wrap;html=1;" parent="1" vertex="1">
          <mxGeometry x="310" y="507" width="104" height="40" as="geometry" />
        </mxCell>
        <mxCell id="Q16-iBj3WvuILZVPS6H7-97" value="" style="endArrow=classic;html=1;rounded=0;entryX=0;entryY=0.5;entryDx=0;entryDy=0;exitX=1;exitY=0.5;exitDx=0;exitDy=0;" parent="1" source="Q16-iBj3WvuILZVPS6H7-89" target="Q16-iBj3WvuILZVPS6H7-95" edge="1">
          <mxGeometry width="50" height="50" relative="1" as="geometry">
            <mxPoint x="310" y="527" as="sourcePoint" />
            <mxPoint x="320" y="526.8" as="targetPoint" />
          </mxGeometry>
        </mxCell>
        <mxCell id="Q16-iBj3WvuILZVPS6H7-98" value="" style="endArrow=classic;html=1;rounded=0;exitX=0.5;exitY=1;exitDx=0;exitDy=0;entryX=0.5;entryY=0;entryDx=0;entryDy=0;" parent="1" source="Q16-iBj3WvuILZVPS6H7-94" target="Q16-iBj3WvuILZVPS6H7-101" edge="1">
          <mxGeometry width="50" height="50" relative="1" as="geometry">
            <mxPoint x="459.82" y="547" as="sourcePoint" />
            <mxPoint x="459.82" y="567" as="targetPoint" />
          </mxGeometry>
        </mxCell>
        <mxCell id="Q16-iBj3WvuILZVPS6H7-99" value="" style="endArrow=classic;html=1;rounded=0;exitX=0.5;exitY=1;exitDx=0;exitDy=0;entryX=0.5;entryY=0;entryDx=0;entryDy=0;" parent="1" source="Q16-iBj3WvuILZVPS6H7-95" target="Q16-iBj3WvuILZVPS6H7-102" edge="1">
          <mxGeometry width="50" height="50" relative="1" as="geometry">
            <mxPoint x="379" y="547" as="sourcePoint" />
            <mxPoint x="378.82" y="567" as="targetPoint" />
          </mxGeometry>
        </mxCell>
        <mxCell id="Q16-iBj3WvuILZVPS6H7-101" value="confirm&lt;div&gt;customer service&lt;/div&gt;" style="rounded=1;whiteSpace=wrap;html=1;" parent="1" vertex="1">
          <mxGeometry x="425" y="584" width="70" height="40" as="geometry" />
        </mxCell>
        <mxCell id="Q16-iBj3WvuILZVPS6H7-102" value="confirm&lt;div&gt;invontery&lt;/div&gt;" style="rounded=1;whiteSpace=wrap;html=1;" parent="1" vertex="1">
          <mxGeometry x="344" y="584" width="70" height="40" as="geometry" />
        </mxCell>
        <mxCell id="Q16-iBj3WvuILZVPS6H7-104" value="" style="endArrow=classic;html=1;rounded=0;exitX=0.5;exitY=1;exitDx=0;exitDy=0;" parent="1" source="Q16-iBj3WvuILZVPS6H7-101" edge="1">
          <mxGeometry width="50" height="50" relative="1" as="geometry">
            <mxPoint x="460" y="624" as="sourcePoint" />
            <mxPoint x="459.82" y="644" as="targetPoint" />
          </mxGeometry>
        </mxCell>
        <mxCell id="Q16-iBj3WvuILZVPS6H7-105" value="" style="endArrow=classic;html=1;rounded=0;exitX=0.5;exitY=1;exitDx=0;exitDy=0;" parent="1" source="Q16-iBj3WvuILZVPS6H7-102" edge="1">
          <mxGeometry width="50" height="50" relative="1" as="geometry">
            <mxPoint x="379" y="624" as="sourcePoint" />
            <mxPoint x="378.82" y="644" as="targetPoint" />
          </mxGeometry>
        </mxCell>
        <mxCell id="Q16-iBj3WvuILZVPS6H7-106" value="" style="endArrow=none;html=1;rounded=0;" parent="1" edge="1">
          <mxGeometry width="50" height="50" relative="1" as="geometry">
            <mxPoint x="360" y="644" as="sourcePoint" />
            <mxPoint x="480" y="644" as="targetPoint" />
          </mxGeometry>
        </mxCell>
        <mxCell id="Q16-iBj3WvuILZVPS6H7-107" value="" style="endArrow=classic;html=1;rounded=0;exitX=0.5;exitY=1;exitDx=0;exitDy=0;" parent="1" edge="1">
          <mxGeometry width="50" height="50" relative="1" as="geometry">
            <mxPoint x="420" y="644" as="sourcePoint" />
            <mxPoint x="419.82" y="664" as="targetPoint" />
          </mxGeometry>
        </mxCell>
        <mxCell id="Q16-iBj3WvuILZVPS6H7-108" value="confirm&lt;div&gt;customer service&lt;/div&gt;" style="rounded=1;whiteSpace=wrap;html=1;" parent="1" vertex="1">
          <mxGeometry x="385" y="664" width="70" height="40" as="geometry" />
        </mxCell>
        <mxCell id="Q16-iBj3WvuILZVPS6H7-111" value="" style="endArrow=classic;html=1;rounded=0;exitX=0.5;exitY=1;exitDx=0;exitDy=0;" parent="1" edge="1">
          <mxGeometry width="50" height="50" relative="1" as="geometry">
            <mxPoint x="420" y="704" as="sourcePoint" />
            <mxPoint x="419.82" y="724" as="targetPoint" />
            <Array as="points">
              <mxPoint x="420" y="704" />
            </Array>
          </mxGeometry>
        </mxCell>
        <mxCell id="Q16-iBj3WvuILZVPS6H7-124" value="" style="endArrow=none;html=1;rounded=0;entryX=0.999;entryY=0.084;entryDx=0;entryDy=0;entryPerimeter=0;exitX=0;exitY=0.084;exitDx=0;exitDy=0;exitPerimeter=0;" parent="1" source="Q16-iBj3WvuILZVPS6H7-120" target="Q16-iBj3WvuILZVPS6H7-121" edge="1">
          <mxGeometry width="50" height="50" relative="1" as="geometry">
            <mxPoint x="2" y="100" as="sourcePoint" />
            <mxPoint x="823.1260000000002" y="96.55099999999993" as="targetPoint" />
          </mxGeometry>
        </mxCell>
        <mxCell id="Q16-iBj3WvuILZVPS6H7-125" value="&lt;font&gt;Inventory&lt;/font&gt;" style="text;html=1;align=center;verticalAlign=middle;whiteSpace=wrap;rounded=0;fontStyle=1;fontSize=38;" parent="1" vertex="1">
          <mxGeometry x="43" y="30" width="192" height="30" as="geometry" />
        </mxCell>
        <mxCell id="Q16-iBj3WvuILZVPS6H7-126" value="&lt;font&gt;customer&lt;/font&gt;&lt;span style=&quot;color: rgba(0, 0, 0, 0); font-family: monospace; font-weight: 400; text-align: start; text-wrap-mode: nowrap; font-size: 0px;&quot;&gt;%3CmxGraphModel%3E%3Croot%3E%3CmxCell%20id%3D%220%22%2F%3E%3CmxCell%20id%3D%221%22%20parent%3D%220%22%2F%3E%3CmxCell%20id%3D%222%22%20value%3D%22%26lt%3Bfont%26gt%3BInventory%26lt%3B%2Ffont%26gt%3B%22%20style%3D%22text%3Bhtml%3D1%3Balign%3Dcenter%3BverticalAlign%3Dmiddle%3BwhiteSpace%3Dwrap%3Brounded%3D0%3BfontStyle%3D1%3BfontSize%3D38%3B%22%20vertex%3D%221%22%20parent%3D%221%22%3E%3CmxGeometry%20x%3D%2243%22%20y%3D%2230%22%20width%3D%22192%22%20height%3D%2230%22%20as%3D%22geometry%22%2F%3E%3C%2FmxCell%3E%3C%2Froot%3E%3C%2FmxGraphModel%3E&lt;/span&gt;" style="text;html=1;align=center;verticalAlign=middle;whiteSpace=wrap;rounded=0;fontStyle=1;fontSize=38;" parent="1" vertex="1">
          <mxGeometry x="328" y="30" width="192" height="30" as="geometry" />
        </mxCell>
        <mxCell id="Q16-iBj3WvuILZVPS6H7-127" value="customer service" style="text;html=1;align=center;verticalAlign=middle;whiteSpace=wrap;rounded=0;fontStyle=1;fontSize=38;" parent="1" vertex="1">
          <mxGeometry x="604" y="30" width="192" height="30" as="geometry" />
        </mxCell>
        <mxCell id="Q16-iBj3WvuILZVPS6H7-129" value="" style="ellipse;whiteSpace=wrap;html=1;aspect=fixed;fillColor=#000000;" parent="1" vertex="1">
          <mxGeometry x="405" y="725" width="30" height="30" as="geometry" />
        </mxCell>
        <mxCell id="uWAsY4eUGRDvIrfDlokK-1" value="" style="endArrow=classic;html=1;rounded=0;exitX=1;exitY=0.5;exitDx=0;exitDy=0;entryX=0;entryY=0.5;entryDx=0;entryDy=0;" edge="1" parent="1" source="Q16-iBj3WvuILZVPS6H7-50" target="uWAsY4eUGRDvIrfDlokK-2">
          <mxGeometry width="50" height="50" relative="1" as="geometry">
            <mxPoint x="560" y="460" as="sourcePoint" />
            <mxPoint x="610" y="410" as="targetPoint" />
          </mxGeometry>
        </mxCell>
        <mxCell id="uWAsY4eUGRDvIrfDlokK-2" value="ticket details" style="rounded=1;whiteSpace=wrap;html=1;" vertex="1" parent="1">
          <mxGeometry x="640" y="427" width="105" height="40" as="geometry" />
        </mxCell>
        <mxCell id="uWAsY4eUGRDvIrfDlokK-3" value="" style="endArrow=classic;html=1;rounded=0;exitX=0.5;exitY=1;exitDx=0;exitDy=0;" edge="1" parent="1" source="uWAsY4eUGRDvIrfDlokK-2">
          <mxGeometry width="50" height="50" relative="1" as="geometry">
            <mxPoint x="692.5" y="464" as="sourcePoint" />
            <mxPoint x="692" y="488" as="targetPoint" />
          </mxGeometry>
        </mxCell>
        <mxCell id="uWAsY4eUGRDvIrfDlokK-4" value="" style="endArrow=none;html=1;rounded=0;" edge="1" parent="1">
          <mxGeometry width="50" height="50" relative="1" as="geometry">
            <mxPoint x="633" y="488" as="sourcePoint" />
            <mxPoint x="749" y="488" as="targetPoint" />
          </mxGeometry>
        </mxCell>
        <mxCell id="uWAsY4eUGRDvIrfDlokK-5" value="" style="endArrow=classic;html=1;rounded=0;entryX=0.5;entryY=0;entryDx=0;entryDy=0;" edge="1" parent="1" target="uWAsY4eUGRDvIrfDlokK-7">
          <mxGeometry width="50" height="50" relative="1" as="geometry">
            <mxPoint x="632" y="488" as="sourcePoint" />
            <mxPoint x="652.9" y="508" as="targetPoint" />
          </mxGeometry>
        </mxCell>
        <mxCell id="uWAsY4eUGRDvIrfDlokK-6" value="" style="endArrow=classic;html=1;rounded=0;entryX=0.5;entryY=0;entryDx=0;entryDy=0;" edge="1" parent="1" target="uWAsY4eUGRDvIrfDlokK-9">
          <mxGeometry width="50" height="50" relative="1" as="geometry">
            <mxPoint x="749" y="488" as="sourcePoint" />
            <mxPoint x="749.81" y="508" as="targetPoint" />
          </mxGeometry>
        </mxCell>
        <mxCell id="uWAsY4eUGRDvIrfDlokK-15" value="" style="edgeStyle=orthogonalEdgeStyle;rounded=0;orthogonalLoop=1;jettySize=auto;html=1;" edge="1" parent="1" source="uWAsY4eUGRDvIrfDlokK-7" target="Q16-iBj3WvuILZVPS6H7-94">
          <mxGeometry relative="1" as="geometry" />
        </mxCell>
        <mxCell id="uWAsY4eUGRDvIrfDlokK-7" value="confirm app" style="rounded=1;whiteSpace=wrap;html=1;" vertex="1" parent="1">
          <mxGeometry x="579" y="508" width="106" height="40" as="geometry" />
        </mxCell>
        <mxCell id="uWAsY4eUGRDvIrfDlokK-8" value="" style="endArrow=classic;html=1;rounded=0;entryX=0.5;entryY=0;entryDx=0;entryDy=0;exitX=0.5;exitY=1;exitDx=0;exitDy=0;" edge="1" parent="1" target="uWAsY4eUGRDvIrfDlokK-11">
          <mxGeometry width="50" height="50" relative="1" as="geometry">
            <mxPoint x="749" y="548" as="sourcePoint" />
            <mxPoint x="749" y="573" as="targetPoint" />
          </mxGeometry>
        </mxCell>
        <mxCell id="uWAsY4eUGRDvIrfDlokK-9" value="add new ticket" style="rounded=1;whiteSpace=wrap;html=1;" vertex="1" parent="1">
          <mxGeometry x="700" y="508" width="99" height="40" as="geometry" />
        </mxCell>
        <mxCell id="uWAsY4eUGRDvIrfDlokK-11" value="" style="ellipse;whiteSpace=wrap;html=1;aspect=fixed;fillColor=#000000;" vertex="1" parent="1">
          <mxGeometry x="734" y="572" width="30" height="30" as="geometry" />
        </mxCell>
      </root>
    </mxGraphModel>
  </diagram>
</mxfile>
